<mxfile host="Electron" modified="2023-07-23T12:47:32.709Z" agent="Mozilla/5.0 (Windows NT 10.0; Win64; x64) AppleWebKit/537.36 (KHTML, like Gecko) draw.io/21.6.5 Chrome/114.0.5735.243 Electron/25.3.1 Safari/537.36" etag="nfubd0c4Mn0T1nsyFzoA" version="21.6.5" type="device">
  <diagram name="Page-1" id="7a6c530e-6e37-e111-ec74-82921da8cc10">
    <mxGraphModel dx="1728" dy="997" grid="1" gridSize="10" guides="1" tooltips="1" connect="1" arrows="1" fold="1" page="1" pageScale="1.5" pageWidth="1169" pageHeight="826" background="none" math="0" shadow="0">
      <root>
        <mxCell id="0" style=";html=1;" />
        <mxCell id="1" style=";html=1;" parent="0" />
        <mxCell id="Mm9druKYH4LjsCTrNjfw-6" style="edgeStyle=orthogonalEdgeStyle;rounded=0;orthogonalLoop=1;jettySize=auto;html=1;strokeWidth=3;" edge="1" parent="1" source="Mm9druKYH4LjsCTrNjfw-1" target="Mm9druKYH4LjsCTrNjfw-4">
          <mxGeometry relative="1" as="geometry" />
        </mxCell>
        <mxCell id="Mm9druKYH4LjsCTrNjfw-1" value="" style="image;sketch=0;aspect=fixed;html=1;points=[];align=center;fontSize=12;image=img/lib/mscae/Quick_Start_Center.svg;" vertex="1" parent="1">
          <mxGeometry x="200" y="100" width="70" height="70" as="geometry" />
        </mxCell>
        <mxCell id="Mm9druKYH4LjsCTrNjfw-2" value="&lt;b&gt;&lt;font style=&quot;font-size: 13px;&quot;&gt;Business Knowledge &amp;amp; DevOps Culture&lt;/font&gt;&lt;/b&gt;" style="text;html=1;strokeColor=#000000;fillColor=#BF0816;align=center;verticalAlign=middle;whiteSpace=wrap;rounded=0;fontColor=#ffffff;" vertex="1" parent="1">
          <mxGeometry x="480" y="190" width="169" height="30" as="geometry" />
        </mxCell>
        <mxCell id="Mm9druKYH4LjsCTrNjfw-9" style="edgeStyle=orthogonalEdgeStyle;rounded=0;orthogonalLoop=1;jettySize=auto;html=1;strokeWidth=3;" edge="1" parent="1" source="Mm9druKYH4LjsCTrNjfw-4" target="Mm9druKYH4LjsCTrNjfw-8">
          <mxGeometry relative="1" as="geometry" />
        </mxCell>
        <mxCell id="Mm9druKYH4LjsCTrNjfw-4" value="" style="sketch=0;outlineConnect=0;fontColor=#232F3E;gradientColor=none;fillColor=#BF0816;strokeColor=none;dashed=0;verticalLabelPosition=bottom;verticalAlign=top;align=center;html=1;fontSize=12;fontStyle=0;aspect=fixed;shape=mxgraph.aws4.email;" vertex="1" parent="1">
          <mxGeometry x="509" y="100" width="78" height="69" as="geometry" />
        </mxCell>
        <mxCell id="Mm9druKYH4LjsCTrNjfw-5" value="&lt;b&gt;&lt;font style=&quot;font-size: 13px;&quot;&gt;DevOps Journey&lt;/font&gt;&lt;/b&gt;" style="text;html=1;strokeColor=#001DBC;fillColor=#0050ef;align=center;verticalAlign=middle;whiteSpace=wrap;rounded=0;fontColor=#ffffff;" vertex="1" parent="1">
          <mxGeometry x="190" y="190" width="110" height="20" as="geometry" />
        </mxCell>
        <mxCell id="Mm9druKYH4LjsCTrNjfw-7" value="&lt;span style=&quot;background-color: initial;&quot;&gt;1. What is a software product / platform ?&lt;/span&gt;&lt;br&gt;&lt;span style=&quot;background-color: initial;&quot;&gt;2.&amp;nbsp;&lt;/span&gt;What is Software Lifecycle?&amp;nbsp;&lt;br&gt;&lt;span style=&quot;background-color: initial;&quot;&gt;3. What are software methodologies?&lt;/span&gt;" style="text;html=1;strokeColor=#000000;fillColor=#BF0816;align=left;verticalAlign=middle;whiteSpace=wrap;rounded=0;fontColor=#ffffff;" vertex="1" parent="1">
          <mxGeometry x="449" y="230" width="240" height="60" as="geometry" />
        </mxCell>
        <mxCell id="Mm9druKYH4LjsCTrNjfw-17" style="edgeStyle=orthogonalEdgeStyle;rounded=0;orthogonalLoop=1;jettySize=auto;html=1;entryX=1.039;entryY=0.556;entryDx=0;entryDy=0;entryPerimeter=0;strokeWidth=3;" edge="1" parent="1" source="Mm9druKYH4LjsCTrNjfw-8" target="Mm9druKYH4LjsCTrNjfw-13">
          <mxGeometry relative="1" as="geometry">
            <Array as="points">
              <mxPoint x="1000" y="135" />
              <mxPoint x="1000" y="410" />
            </Array>
          </mxGeometry>
        </mxCell>
        <mxCell id="Mm9druKYH4LjsCTrNjfw-8" value="" style="sketch=0;points=[[0,0,0],[0.25,0,0],[0.5,0,0],[0.75,0,0],[1,0,0],[0,1,0],[0.25,1,0],[0.5,1,0],[0.75,1,0],[1,1,0],[0,0.25,0],[0,0.5,0],[0,0.75,0],[1,0.25,0],[1,0.5,0],[1,0.75,0]];gradientDirection=north;outlineConnect=0;fontColor=#ffffff;fillColor=#6a00ff;strokeColor=#FFFF00;dashed=0;verticalLabelPosition=bottom;verticalAlign=top;align=center;html=1;fontSize=12;fontStyle=0;aspect=fixed;shape=mxgraph.aws4.resourceIcon;resIcon=mxgraph.aws4.all_products;" vertex="1" parent="1">
          <mxGeometry x="790" y="96" width="78" height="78" as="geometry" />
        </mxCell>
        <mxCell id="Mm9druKYH4LjsCTrNjfw-10" value="&lt;span style=&quot;font-size: 13px;&quot;&gt;&lt;b&gt;Environments&lt;/b&gt;&lt;/span&gt;" style="text;html=1;strokeColor=#000000;fillColor=#6a00ff;align=center;verticalAlign=middle;whiteSpace=wrap;rounded=0;fontColor=#ffffff;" vertex="1" parent="1">
          <mxGeometry x="779" y="190" width="100" height="30" as="geometry" />
        </mxCell>
        <mxCell id="Mm9druKYH4LjsCTrNjfw-12" value="&lt;span style=&quot;background-color: initial;&quot;&gt;1. What are are the differences between&lt;br&gt;&lt;b&gt;Dev - Test - Stage/Acceptance - Prod&lt;/b&gt;&lt;br&gt;[DTAP] vs [DSP]&lt;br&gt;&lt;/span&gt;&lt;span style=&quot;background-color: initial;&quot;&gt;2. What means deploying in production?&lt;/span&gt;&lt;br&gt;&lt;span style=&quot;background-color: initial;&quot;&gt;3. What means production ready software?&lt;/span&gt;" style="text;html=1;strokeColor=#000000;fillColor=#6a00ff;align=left;verticalAlign=middle;whiteSpace=wrap;rounded=0;fontColor=#ffffff;" vertex="1" parent="1">
          <mxGeometry x="720" y="230" width="240" height="80" as="geometry" />
        </mxCell>
        <mxCell id="Mm9druKYH4LjsCTrNjfw-19" style="edgeStyle=orthogonalEdgeStyle;rounded=0;orthogonalLoop=1;jettySize=auto;html=1;entryX=1;entryY=0.5;entryDx=0;entryDy=0;entryPerimeter=0;strokeWidth=3;" edge="1" parent="1" source="Mm9druKYH4LjsCTrNjfw-13" target="Mm9druKYH4LjsCTrNjfw-18">
          <mxGeometry relative="1" as="geometry" />
        </mxCell>
        <mxCell id="Mm9druKYH4LjsCTrNjfw-13" value="" style="verticalLabelPosition=bottom;html=1;verticalAlign=top;align=center;strokeColor=none;fillColor=#00BEF2;shape=mxgraph.azure.operating_system_image;" vertex="1" parent="1">
          <mxGeometry x="790" y="360" width="90" height="90" as="geometry" />
        </mxCell>
        <mxCell id="Mm9druKYH4LjsCTrNjfw-14" value="&lt;span style=&quot;font-size: 13px;&quot;&gt;&lt;b&gt;Operating Systems&lt;/b&gt;&lt;/span&gt;" style="text;html=1;strokeColor=#000000;fillColor=#00BEF2;align=center;verticalAlign=middle;whiteSpace=wrap;rounded=0;fontColor=#ffffff;" vertex="1" parent="1">
          <mxGeometry x="777.5" y="470" width="125" height="30" as="geometry" />
        </mxCell>
        <mxCell id="Mm9druKYH4LjsCTrNjfw-16" value="&lt;span style=&quot;background-color: initial;&quot;&gt;1. What is an OS?&lt;br&gt;&lt;/span&gt;&lt;span style=&quot;background-color: initial;&quot;&gt;2. How an OS works?&lt;/span&gt;&lt;br&gt;&lt;span style=&quot;background-color: initial;&quot;&gt;3. What OS are available?&lt;/span&gt;" style="text;html=1;strokeColor=#000000;fillColor=#00BEF2;align=left;verticalAlign=middle;whiteSpace=wrap;rounded=0;fontColor=#ffffff;" vertex="1" parent="1">
          <mxGeometry x="765" y="510" width="150" height="50" as="geometry" />
        </mxCell>
        <mxCell id="Mm9druKYH4LjsCTrNjfw-25" style="edgeStyle=orthogonalEdgeStyle;rounded=0;orthogonalLoop=1;jettySize=auto;html=1;strokeWidth=3;" edge="1" parent="1" source="Mm9druKYH4LjsCTrNjfw-18" target="Mm9druKYH4LjsCTrNjfw-22">
          <mxGeometry relative="1" as="geometry" />
        </mxCell>
        <mxCell id="Mm9druKYH4LjsCTrNjfw-18" value="" style="verticalLabelPosition=bottom;html=1;verticalAlign=top;align=center;strokeColor=#005700;fillColor=#008a00;shape=mxgraph.azure.code_file;pointerEvents=1;fontColor=#ffffff;" vertex="1" parent="1">
          <mxGeometry x="526.5" y="350" width="83" height="110" as="geometry" />
        </mxCell>
        <mxCell id="Mm9druKYH4LjsCTrNjfw-20" value="&lt;span style=&quot;font-size: 13px;&quot;&gt;&lt;b&gt;Coding&lt;/b&gt;&lt;/span&gt;" style="text;html=1;strokeColor=#000000;fillColor=#008A00;align=center;verticalAlign=middle;whiteSpace=wrap;rounded=0;fontColor=#ffffff;" vertex="1" parent="1">
          <mxGeometry x="533.5" y="470" width="71" height="30" as="geometry" />
        </mxCell>
        <mxCell id="Mm9druKYH4LjsCTrNjfw-21" value="&lt;span style=&quot;background-color: initial;&quot;&gt;1. What are programming languages?&lt;br&gt;&lt;/span&gt;&lt;span style=&quot;background-color: initial;&quot;&gt;2. Compiled vs Interpreted?&lt;br&gt;&lt;/span&gt;&lt;span style=&quot;background-color: initial;&quot;&gt;3. How to code?&amp;nbsp;&lt;/span&gt;" style="text;html=1;strokeColor=#000000;fillColor=#008A00;align=left;verticalAlign=middle;whiteSpace=wrap;rounded=0;fontColor=#ffffff;" vertex="1" parent="1">
          <mxGeometry x="458.75" y="510" width="213.5" height="50" as="geometry" />
        </mxCell>
        <mxCell id="Mm9druKYH4LjsCTrNjfw-27" style="edgeStyle=orthogonalEdgeStyle;rounded=0;orthogonalLoop=1;jettySize=auto;html=1;strokeWidth=3;" edge="1" parent="1" source="Mm9druKYH4LjsCTrNjfw-22" target="Mm9druKYH4LjsCTrNjfw-26">
          <mxGeometry relative="1" as="geometry">
            <Array as="points">
              <mxPoint x="120" y="405" />
              <mxPoint x="120" y="650" />
            </Array>
          </mxGeometry>
        </mxCell>
        <mxCell id="Mm9druKYH4LjsCTrNjfw-22" value="" style="dashed=0;outlineConnect=0;html=1;align=center;labelPosition=center;verticalLabelPosition=bottom;verticalAlign=top;shape=mxgraph.weblogos.github" vertex="1" parent="1">
          <mxGeometry x="219.25" y="367.5" width="75" height="75" as="geometry" />
        </mxCell>
        <mxCell id="Mm9druKYH4LjsCTrNjfw-23" value="&lt;span style=&quot;font-size: 13px;&quot;&gt;&lt;b&gt;Version Control&lt;/b&gt;&lt;/span&gt;" style="text;html=1;strokeColor=#000000;fillColor=#0d2636;align=center;verticalAlign=middle;whiteSpace=wrap;rounded=0;fontColor=#ffffff;" vertex="1" parent="1">
          <mxGeometry x="201.75" y="470" width="110" height="30" as="geometry" />
        </mxCell>
        <mxCell id="Mm9druKYH4LjsCTrNjfw-24" value="&lt;span style=&quot;background-color: initial;&quot;&gt;1. Why do we need to version the code?&lt;br&gt;&lt;/span&gt;&lt;span style=&quot;background-color: initial;&quot;&gt;2. What is code repository?&lt;br&gt;&lt;/span&gt;&lt;span style=&quot;background-color: initial;&quot;&gt;3. How to work well with others?&amp;nbsp;&lt;/span&gt;" style="text;html=1;strokeColor=#000000;fillColor=#0d2636;align=left;verticalAlign=middle;whiteSpace=wrap;rounded=0;fontColor=#ffffff;" vertex="1" parent="1">
          <mxGeometry x="160" y="510" width="231.75" height="50" as="geometry" />
        </mxCell>
        <mxCell id="Mm9druKYH4LjsCTrNjfw-32" style="edgeStyle=orthogonalEdgeStyle;rounded=0;orthogonalLoop=1;jettySize=auto;html=1;strokeWidth=3;" edge="1" parent="1" source="Mm9druKYH4LjsCTrNjfw-26" target="Mm9druKYH4LjsCTrNjfw-30">
          <mxGeometry relative="1" as="geometry" />
        </mxCell>
        <mxCell id="Mm9druKYH4LjsCTrNjfw-26" value="" style="sketch=0;outlineConnect=0;fontColor=#000000;fillColor=#fa6800;strokeColor=#C73500;dashed=0;verticalLabelPosition=bottom;verticalAlign=top;align=center;html=1;fontSize=12;fontStyle=0;aspect=fixed;shape=mxgraph.aws4.pinpoint_journey;" vertex="1" parent="1">
          <mxGeometry x="206" y="620" width="78" height="75" as="geometry" />
        </mxCell>
        <mxCell id="Mm9druKYH4LjsCTrNjfw-28" value="&lt;span style=&quot;font-size: 13px;&quot;&gt;&lt;b&gt;Continous Integration / Continous Delivery&lt;/b&gt;&lt;/span&gt;" style="text;html=1;strokeColor=#000000;fillColor=#fa6800;align=center;verticalAlign=middle;whiteSpace=wrap;rounded=0;fontColor=#000000;" vertex="1" parent="1">
          <mxGeometry x="161.31" y="710" width="167.38" height="30" as="geometry" />
        </mxCell>
        <mxCell id="Mm9druKYH4LjsCTrNjfw-29" value="&lt;span style=&quot;background-color: initial;&quot;&gt;1. What is a pipeline?&lt;br&gt;&lt;/span&gt;&lt;span style=&quot;background-color: initial;&quot;&gt;2. What is build/test/package/deploy?&lt;br&gt;&lt;/span&gt;&lt;span style=&quot;background-color: initial;&quot;&gt;3. How to build CI/CD?&amp;nbsp;&lt;/span&gt;" style="text;html=1;strokeColor=#000000;fillColor=#fa6800;align=left;verticalAlign=middle;whiteSpace=wrap;rounded=0;fontColor=#000000;" vertex="1" parent="1">
          <mxGeometry x="129.13" y="750" width="231.75" height="50" as="geometry" />
        </mxCell>
        <mxCell id="Mm9druKYH4LjsCTrNjfw-37" style="edgeStyle=orthogonalEdgeStyle;rounded=0;orthogonalLoop=1;jettySize=auto;html=1;strokeWidth=3;fillColor=#a0522d;strokeColor=#000000;" edge="1" parent="1" source="Mm9druKYH4LjsCTrNjfw-30" target="Mm9druKYH4LjsCTrNjfw-35">
          <mxGeometry relative="1" as="geometry" />
        </mxCell>
        <mxCell id="Mm9druKYH4LjsCTrNjfw-30" value="" style="image;sketch=0;aspect=fixed;html=1;points=[];align=center;fontSize=12;image=img/lib/mscae/Docker.svg;" vertex="1" parent="1">
          <mxGeometry x="525.5" y="618" width="96.34" height="79" as="geometry" />
        </mxCell>
        <mxCell id="Mm9druKYH4LjsCTrNjfw-33" value="&lt;span style=&quot;font-size: 13px;&quot;&gt;&lt;b&gt;Containers&lt;/b&gt;&lt;/span&gt;" style="text;html=1;strokeColor=#000000;fillColor=#008bb8;align=center;verticalAlign=middle;whiteSpace=wrap;rounded=0;fontColor=#FFFFFF;" vertex="1" parent="1">
          <mxGeometry x="523.89" y="710" width="99.56" height="30" as="geometry" />
        </mxCell>
        <mxCell id="Mm9druKYH4LjsCTrNjfw-34" value="&lt;span style=&quot;background-color: initial;&quot;&gt;1. What is containerization?&lt;br&gt;&lt;/span&gt;&lt;span style=&quot;background-color: initial;&quot;&gt;2. How to manage containers?&lt;br&gt;&lt;/span&gt;&lt;span style=&quot;background-color: initial;&quot;&gt;3. What is Kubernetes?&amp;nbsp;&lt;/span&gt;" style="text;html=1;strokeColor=#000000;fillColor=#008bb8;align=left;verticalAlign=middle;whiteSpace=wrap;rounded=0;fontColor=#FFFFFF;" vertex="1" parent="1">
          <mxGeometry x="483.67" y="750" width="180" height="50" as="geometry" />
        </mxCell>
        <mxCell id="Mm9druKYH4LjsCTrNjfw-41" style="edgeStyle=orthogonalEdgeStyle;rounded=0;orthogonalLoop=1;jettySize=auto;html=1;entryX=1;entryY=0.5;entryDx=0;entryDy=0;strokeWidth=3;" edge="1" parent="1" source="Mm9druKYH4LjsCTrNjfw-35" target="Mm9druKYH4LjsCTrNjfw-40">
          <mxGeometry relative="1" as="geometry">
            <Array as="points">
              <mxPoint x="1000" y="657" />
              <mxPoint x="1000" y="906" />
            </Array>
          </mxGeometry>
        </mxCell>
        <mxCell id="Mm9druKYH4LjsCTrNjfw-35" value="" style="outlineConnect=0;dashed=0;verticalLabelPosition=bottom;verticalAlign=top;align=center;html=1;shape=mxgraph.aws3.automation;fillColor=#a0522d;fontColor=#ffffff;strokeColor=#6D1F00;" vertex="1" parent="1">
          <mxGeometry x="838" y="617" width="78" height="81" as="geometry" />
        </mxCell>
        <mxCell id="Mm9druKYH4LjsCTrNjfw-38" value="&lt;span style=&quot;font-size: 13px;&quot;&gt;&lt;b&gt;Automation&lt;/b&gt;&lt;/span&gt;" style="text;html=1;strokeColor=#000000;fillColor=#a0522d;align=center;verticalAlign=middle;whiteSpace=wrap;rounded=0;fontColor=#FFFFFF;" vertex="1" parent="1">
          <mxGeometry x="827.22" y="710" width="99.56" height="30" as="geometry" />
        </mxCell>
        <mxCell id="Mm9druKYH4LjsCTrNjfw-39" value="&lt;span style=&quot;background-color: initial;&quot;&gt;1. What is scripting?&lt;br&gt;&lt;/span&gt;&lt;span style=&quot;background-color: initial;&quot;&gt;2. How to automate boring stuff?&lt;br&gt;&lt;/span&gt;&lt;span style=&quot;background-color: initial;&quot;&gt;3. Automate vs Manual update?&amp;nbsp;&lt;/span&gt;" style="text;html=1;strokeColor=#6D1F00;fillColor=#a0522d;align=left;verticalAlign=middle;whiteSpace=wrap;rounded=0;fontColor=#ffffff;" vertex="1" parent="1">
          <mxGeometry x="787" y="750" width="180" height="50" as="geometry" />
        </mxCell>
        <mxCell id="Mm9druKYH4LjsCTrNjfw-40" value="" style="image;aspect=fixed;perimeter=ellipsePerimeter;html=1;align=center;shadow=0;dashed=0;spacingTop=3;image=img/lib/active_directory/internet_cloud.svg;" vertex="1" parent="1">
          <mxGeometry x="481.89" y="851.5" width="172.22" height="108.5" as="geometry" />
        </mxCell>
        <mxCell id="Mm9druKYH4LjsCTrNjfw-42" value="&lt;span style=&quot;font-size: 13px;&quot;&gt;&lt;b&gt;Cloud&lt;/b&gt;&lt;/span&gt;" style="text;html=1;strokeColor=#10739e;fillColor=#b1ddf0;align=center;verticalAlign=middle;whiteSpace=wrap;rounded=0;" vertex="1" parent="1">
          <mxGeometry x="538.11" y="970" width="61.78" height="30" as="geometry" />
        </mxCell>
        <mxCell id="Mm9druKYH4LjsCTrNjfw-43" value="&lt;span style=&quot;background-color: initial;&quot;&gt;1. What is cloud?&lt;br&gt;&lt;/span&gt;&lt;span style=&quot;background-color: initial;&quot;&gt;2. OnPrem vs Cloud?&lt;br&gt;&lt;/span&gt;&lt;span style=&quot;background-color: initial;&quot;&gt;3. Infrastructure as a Code?&amp;nbsp;&lt;/span&gt;" style="text;html=1;strokeColor=#10739e;fillColor=#b1ddf0;align=left;verticalAlign=middle;whiteSpace=wrap;rounded=0;" vertex="1" parent="1">
          <mxGeometry x="488" y="1010" width="162" height="50" as="geometry" />
        </mxCell>
      </root>
    </mxGraphModel>
  </diagram>
</mxfile>
